<?xml version="1.0" encoding="UTF-8"?>
<svg version="1.1" xmlns="http://www.w3.org/2000/svg" width="184" height="184">
<path d="M0 0 C7.76385082 6.24244975 11.69329359 14.77566501 13.25390625 24.4296875 C15.36051491 43.9878858 8.22364713 62.09261067 -2.25 78.3125 C-3.40177049 79.71756441 -4.58328741 81.09965933 -5.8125 82.4375 C-6.616875 83.38625 -7.42125 84.335 -8.25 85.3125 C-7.5474358 90.4679359 -4.68524116 93.97087274 -0.96875 97.40625 C2.99539701 101.32680678 5.5315633 105.59993969 8.125 110.5 C8.56199219 111.29341797 8.99898438 112.08683594 9.44921875 112.90429688 C11.32495167 116.36249796 12.92383836 119.44318334 13.75 123.3125 C16.87197478 122.0035428 16.87197478 122.0035428 18.75 119.3125 C19.4375 121.0625 19.4375 121.0625 19.75 123.3125 C18.4375 125.5625 18.4375 125.5625 16.75 127.3125 C16.09 127.3125 15.43 127.3125 14.75 127.3125 C14.4921875 127.92738281 14.234375 128.54226562 13.96875 129.17578125 C12.59477835 131.58463539 11.6601032 132.21098989 9.25 133.5 C3.77680114 136.72244498 -0.60847667 141.01724904 -5.25 145.3125 C-6.70358706 146.58875943 -8.16152032 147.86009656 -9.625 149.125 C-11.67982194 150.91108265 -13.63534124 152.69784124 -15.5625 154.625 C-17.25 156.3125 -17.25 156.3125 -20.25 158.3125 C-21.03988145 160.26635067 -21.03988145 160.26635067 -21.4375 162.4375 C-21.705625 163.71625 -21.97375 164.995 -22.25 166.3125 C-24.625 166 -24.625 166 -27.25 165.3125 C-27.91 164.3225 -28.57 163.3325 -29.25 162.3125 C-30.24 162.3125 -31.23 162.3125 -32.25 162.3125 C-36.14505053 166.30898414 -38.97296095 171.25241322 -41.25 176.3125 C-42.85407328 176.33958567 -44.4582785 176.35893483 -46.0625 176.375 C-47.40248047 176.39240234 -47.40248047 176.39240234 -48.76953125 176.41015625 C-51.25 176.3125 -51.25 176.3125 -54.25 175.3125 C-55.63070946 171.17037163 -56.22855059 167.62093855 -55.25 163.3125 C-53.49576475 161.06638241 -51.55490456 159.31298294 -49.421875 157.42578125 C-45.32895515 153.4432819 -42.64698721 148.30140286 -40.2421875 143.15625 C-38.79042719 140.45849069 -36.73038456 139.04876919 -34.25 137.3125 C-33.59 137.3125 -32.93 137.3125 -32.25 137.3125 C-30.29105674 126.81256411 -31.14925159 116.72245862 -33.25 106.3125 C-37.21 107.3025 -37.21 107.3025 -41.25 108.3125 C-41.25 107.3225 -41.25 106.3325 -41.25 105.3125 C-39.27 104.8175 -39.27 104.8175 -37.25 104.3125 C-36.90450412 98.55423534 -36.83933872 94.21532559 -40.25 89.3125 C-43.57863616 86.03175788 -47.23935402 83.1382902 -50.85546875 80.18359375 C-58.81124877 73.42646892 -61.74585673 67.59889304 -63.6796875 57.5078125 C-64.29376382 55.14403928 -65.21043643 53.26681972 -66.375 51.125 C-68.19993949 47.66035923 -68.9411929 45.2868592 -68.25 41.3125 C-66.21006092 37.6546782 -64.74580738 35.64303826 -61.25 33.3125 C-58.11061146 33.03030777 -55.25998074 33.38512917 -52.25 34.3125 C-50.0975673 36.12202063 -48.87965252 37.96388314 -47.25 40.3125 C-46.26 40.9725 -45.27 41.6325 -44.25 42.3125 C-44.58 43.6325 -44.91 44.9525 -45.25 46.3125 C-44.26 46.6425 -43.27 46.9725 -42.25 47.3125 C-36.86100779 41.7853285 -36.25 38.03421057 -36.25 30.3125 C-36.848125 30.209375 -37.44625 30.10625 -38.0625 30 C-40.25 29.3125 -40.25 29.3125 -41.55078125 27.703125 C-43.19629345 26.02441508 -43.19629345 26.02441508 -45.6484375 26.53515625 C-46.63070312 26.81230469 -47.61296875 27.08945312 -48.625 27.375 C-54.86032664 28.99915077 -61.10484369 30.30864948 -67.4375 31.5 C-68.37062012 31.67861572 -69.30374023 31.85723145 -70.26513672 32.04125977 C-76.98693545 33.3125 -76.98693545 33.3125 -79.25 33.3125 C-79.518125 34.385 -79.78625 35.4575 -80.0625 36.5625 C-81.11117431 39.87410307 -81.87752161 41.84116834 -84.25 44.3125 C-84.91 44.3125 -85.57 44.3125 -86.25 44.3125 C-86.25 45.3025 -86.25 46.2925 -86.25 47.3125 C-87.24 46.9825 -88.23 46.6525 -89.25 46.3125 C-88.79738642 44.87318883 -88.33767021 43.43611001 -87.875 42 C-87.61976562 41.19949219 -87.36453125 40.39898437 -87.1015625 39.57421875 C-86.25 37.3125 -86.25 37.3125 -84.25 34.3125 C-85.15492187 34.27382812 -85.15492187 34.27382812 -86.078125 34.234375 C-92.6873928 33.76533019 -92.6873928 33.76533019 -95.8125 31.25 C-96.286875 30.610625 -96.76125 29.97125 -97.25 29.3125 C-96.59 27.9925 -95.93 26.6725 -95.25 25.3125 C-94.92 25.9725 -94.59 26.6325 -94.25 27.3125 C-93.74597656 27.15652344 -93.24195313 27.00054687 -92.72265625 26.83984375 C-89.39617961 26.1304056 -86.07451933 26.03090789 -82.6875 25.875 C-73.37496097 25.37482722 -64.52324548 23.83190971 -55.5625 21.25 C-49.33925769 19.70291359 -44.004477 19.41118419 -38.25 22.3125 C-34.93920881 21.24136167 -34.24115765 20.29923647 -32.25 17.3125 C-31.26 17.3125 -30.27 17.3125 -29.25 17.3125 C-29.146875 18.26125 -29.04375 19.21 -28.9375 20.1875 C-28.56460705 23.60357501 -28.56460705 23.60357501 -25.25 25.3125 C-25.58 26.9625 -25.91 28.6125 -26.25 30.3125 C-24.6 30.6425 -22.95 30.9725 -21.25 31.3125 C-23.23294825 40.50404837 -25.45694495 48.66407201 -30.078125 56.95703125 C-31.47271549 59.32167831 -31.47271549 59.32167831 -31.25 62.3125 C-29.74117523 63.76762152 -29.74117523 63.76762152 -27.75 65.1875 C-22.87374626 69.21495647 -20.08557168 74.10131991 -17.01171875 79.51953125 C-15.387333 82.51547559 -15.387333 82.51547559 -12.25 84.3125 C-11.97800781 83.57773438 -11.70601563 82.84296875 -11.42578125 82.0859375 C-10.3079777 79.44925803 -9.01865183 77.3154856 -7.4375 74.9375 C0.70243365 61.67020619 3.56219798 45.73187516 1.32421875 30.39453125 C-0.93076678 21.69277726 -5.77161593 14.48747113 -13.4375 9.75 C-22.78983404 4.55098596 -34.80505255 5.00754199 -44.9375 7.8125 C-53.62364313 10.85534765 -61.54493813 15.71933499 -68.375 21.875 C-69.32375 22.679375 -70.2725 23.48375 -71.25 24.3125 C-72.24 23.9825 -73.23 23.6525 -74.25 23.3125 C-72.18089968 16.84371933 -67.31395274 13.54247832 -62.25 9.3125 C-61.60804687 8.76207031 -60.96609375 8.21164062 -60.3046875 7.64453125 C-54.2556064 2.76074932 -47.27160771 -0.46179623 -40.25 -3.6875 C-39.48945312 -4.05359375 -38.72890625 -4.4196875 -37.9453125 -4.796875 C-25.39982164 -9.97127979 -10.89803925 -7.34033037 0 0 Z M-34.25 26.3125 C-34.25 26.9725 -34.25 27.6325 -34.25 28.3125 C-33.26 27.9825 -32.27 27.6525 -31.25 27.3125 C-32.24 26.9825 -33.23 26.6525 -34.25 26.3125 Z M-25.25 159.3125 C-25.25 159.9725 -25.25 160.6325 -25.25 161.3125 C-24.59 160.9825 -23.93 160.6525 -23.25 160.3125 C-23.91 159.9825 -24.57 159.6525 -25.25 159.3125 Z M-51.25 167.3125 C-51.58 168.3025 -51.91 169.2925 -52.25 170.3125 C-51.12890434 171.93743901 -51.12890434 171.93743901 -49.25 173.3125 C-46.12450983 173.56298636 -46.12450983 173.56298636 -43.25 173.3125 C-43.79708727 170.77505685 -43.79708727 170.77505685 -45.25 168.3125 C-48.30272465 167.41419161 -48.30272465 167.41419161 -51.25 167.3125 Z " fill="#1E3987" transform="translate(126.25,6.6875)"/>
<path d="M0 0 C3.23738418 1.41116746 3.70400388 2.99554533 5.4375 6.0625 C6.50392565 7.12042616 7.59544863 8.1533139 8.703125 9.16796875 C12.68518854 13.08125213 15.21574191 17.34366424 17.8125 22.25 C18.24949219 23.04341797 18.68648438 23.83683594 19.13671875 24.65429688 C21.01245167 28.11249796 22.61133836 31.19318334 23.4375 35.0625 C26.55947478 33.7535428 26.55947478 33.7535428 28.4375 31.0625 C29.125 32.8125 29.125 32.8125 29.4375 35.0625 C28.125 37.3125 28.125 37.3125 26.4375 39.0625 C25.7775 39.0625 25.1175 39.0625 24.4375 39.0625 C24.05078125 39.98482422 24.05078125 39.98482422 23.65625 40.92578125 C22.28227835 43.33463539 21.3476032 43.96098989 18.9375 45.25 C13.46430114 48.47244498 9.07902333 52.76724904 4.4375 57.0625 C2.98391294 58.33875943 1.52597968 59.61009656 0.0625 60.875 C-1.99232194 62.66108265 -3.94784124 64.44784124 -5.875 66.375 C-7.5625 68.0625 -7.5625 68.0625 -10.5625 70.0625 C-11.35238145 72.01635067 -11.35238145 72.01635067 -11.75 74.1875 C-12.018125 75.46625 -12.28625 76.745 -12.5625 78.0625 C-14.9375 77.75 -14.9375 77.75 -17.5625 77.0625 C-18.2225 76.0725 -18.8825 75.0825 -19.5625 74.0625 C-20.5525 74.0625 -21.5425 74.0625 -22.5625 74.0625 C-26.45755053 78.05898414 -29.28546095 83.00241322 -31.5625 88.0625 C-33.16657328 88.08958567 -34.7707785 88.10893483 -36.375 88.125 C-37.26832031 88.13660156 -38.16164063 88.14820313 -39.08203125 88.16015625 C-41.5625 88.0625 -41.5625 88.0625 -44.5625 87.0625 C-45.94320946 82.92037163 -46.54105059 79.37093855 -45.5625 75.0625 C-43.80826475 72.81638241 -41.86740456 71.06298294 -39.734375 69.17578125 C-35.64145515 65.1932819 -32.95948721 60.05140286 -30.5546875 54.90625 C-29.10292719 52.20849069 -27.04288456 50.79876919 -24.5625 49.0625 C-23.9025 49.0625 -23.2425 49.0625 -22.5625 49.0625 C-20.87200848 40.02851333 -20.9546072 31.12139188 -23.125 22.18359375 C-23.5625 20.0625 -23.5625 20.0625 -23.5625 16.0625 C-20.68895755 13.88792733 -19.19813409 13.0625 -15.5625 13.0625 C-15.5625 12.4025 -15.5625 11.7425 -15.5625 11.0625 C-13.734375 9.4765625 -13.734375 9.4765625 -11.3125 7.6875 C-8.81951543 5.83812909 -6.58003358 4.08073877 -4.42578125 1.83984375 C-2.5625 0.0625 -2.5625 0.0625 0 0 Z M-15.5625 71.0625 C-15.5625 71.7225 -15.5625 72.3825 -15.5625 73.0625 C-14.9025 72.7325 -14.2425 72.4025 -13.5625 72.0625 C-14.2225 71.7325 -14.8825 71.4025 -15.5625 71.0625 Z M-41.5625 79.0625 C-41.8925 80.0525 -42.2225 81.0425 -42.5625 82.0625 C-41.44140434 83.68743901 -41.44140434 83.68743901 -39.5625 85.0625 C-36.43700983 85.31298636 -36.43700983 85.31298636 -33.5625 85.0625 C-34.10958727 82.52505685 -34.10958727 82.52505685 -35.5625 80.0625 C-38.61522465 79.16419161 -38.61522465 79.16419161 -41.5625 79.0625 Z " fill="#1A3988" transform="translate(116.5625,94.9375)"/>
<path d="M0 0 C7.76385082 6.24244975 11.69329359 14.77566501 13.25390625 24.4296875 C15.3947069 44.30533144 8.12620246 64.96208433 -4.0625 80.64453125 C-5.43969095 82.21704496 -6.84218772 83.76734018 -8.25 85.3125 C-8.745 86.7975 -8.745 86.7975 -9.25 88.3125 C-11.25 88.97916667 -13.25 89.64583333 -15.25 90.3125 C-15.745 91.7975 -15.745 91.7975 -16.25 93.3125 C-17.80859375 94.91796875 -17.80859375 94.91796875 -19.6875 96.5 C-20.30496094 97.02980469 -20.92242187 97.55960937 -21.55859375 98.10546875 C-23.25 99.3125 -23.25 99.3125 -25.25 99.3125 C-25.25 99.9725 -25.25 100.6325 -25.25 101.3125 C-31 104.3125 -31 104.3125 -33.25 104.3125 C-33.25 104.9725 -33.25 105.6325 -33.25 106.3125 C-37.21 107.3025 -37.21 107.3025 -41.25 108.3125 C-41.25 107.3225 -41.25 106.3325 -41.25 105.3125 C-40.321875 105.003125 -39.39375 104.69375 -38.4375 104.375 C-29.40396297 100.49039584 -22.38412114 92.77001754 -16.25 85.3125 C-15.59 84.6525 -14.93 83.9925 -14.25 83.3125 C-13.26 83.8075 -13.26 83.8075 -12.25 84.3125 C-11.97800781 83.57773438 -11.70601562 82.84296875 -11.42578125 82.0859375 C-10.3079777 79.44925803 -9.01865183 77.3154856 -7.4375 74.9375 C0.70243365 61.67020619 3.56219798 45.73187516 1.32421875 30.39453125 C-0.93076678 21.69277726 -5.77161593 14.48747113 -13.4375 9.75 C-22.78983404 4.55098596 -34.80505255 5.00754199 -44.9375 7.8125 C-53.62364313 10.85534765 -61.54493813 15.71933499 -68.375 21.875 C-69.32375 22.679375 -70.2725 23.48375 -71.25 24.3125 C-72.24 23.9825 -73.23 23.6525 -74.25 23.3125 C-72.18089968 16.84371933 -67.31395274 13.54247832 -62.25 9.3125 C-61.60804687 8.76207031 -60.96609375 8.21164062 -60.3046875 7.64453125 C-54.2556064 2.76074932 -47.27160771 -0.46179623 -40.25 -3.6875 C-39.48945312 -4.05359375 -38.72890625 -4.4196875 -37.9453125 -4.796875 C-25.39982164 -9.97127979 -10.89803925 -7.34033037 0 0 Z " fill="#5B82AC" transform="translate(126.25,6.6875)"/>
<path d="M0 0 C0.99 0 1.98 0 3 0 C3.103125 0.94875 3.20625 1.8975 3.3125 2.875 C3.68539295 6.29107501 3.68539295 6.29107501 7 8 C6.67 9.65 6.34 11.3 6 13 C7.65 13.33 9.3 13.66 11 14 C10.67 14.66 10.34 15.32 10 16 C8.20767663 15.69128878 6.41615679 15.37790936 4.625 15.0625 C3.62726563 14.88847656 2.62953125 14.71445312 1.6015625 14.53515625 C-1 14 -1 14 -3 13 C-3.33 13.99 -3.66 14.98 -4 16 C-4 15.01 -4 14.02 -4 13 C-4.598125 12.896875 -5.19625 12.79375 -5.8125 12.6875 C-8 12 -8 12 -9.30078125 10.390625 C-10.94629345 8.71191508 -10.94629345 8.71191508 -13.3984375 9.22265625 C-14.38070312 9.49980469 -15.36296875 9.77695312 -16.375 10.0625 C-22.61032664 11.68665077 -28.85484369 12.99614948 -35.1875 14.1875 C-36.12062012 14.36611572 -37.05374023 14.54473145 -38.01513672 14.72875977 C-44.73693545 16 -44.73693545 16 -47 16 C-47.268125 17.0725 -47.53625 18.145 -47.8125 19.25 C-48.86117431 22.56160307 -49.62752161 24.52866834 -52 27 C-52.66 27 -53.32 27 -54 27 C-54 27.99 -54 28.98 -54 30 C-54.99 29.67 -55.98 29.34 -57 29 C-56.54738642 27.56068883 -56.08767021 26.12361001 -55.625 24.6875 C-55.36976562 23.88699219 -55.11453125 23.08648437 -54.8515625 22.26171875 C-54 20 -54 20 -52 17 C-52.60328125 16.97421875 -53.2065625 16.9484375 -53.828125 16.921875 C-60.4373928 16.45283019 -60.4373928 16.45283019 -63.5625 13.9375 C-64.036875 13.298125 -64.51125 12.65875 -65 12 C-64.34 10.68 -63.68 9.36 -63 8 C-62.67 8.66 -62.34 9.32 -62 10 C-61.49597656 9.84402344 -60.99195313 9.68804687 -60.47265625 9.52734375 C-57.14617961 8.8179056 -53.82451933 8.71840789 -50.4375 8.5625 C-41.12496097 8.06232722 -32.27324548 6.51940971 -23.3125 3.9375 C-17.08925769 2.39041359 -11.754477 2.09868419 -6 5 C-2.68920881 3.92886167 -1.99115765 2.98673647 0 0 Z M-2 9 C-2 9.66 -2 10.32 -2 11 C-1.01 10.67 -0.02 10.34 1 10 C0.01 9.67 -0.98 9.34 -2 9 Z " fill="#25306B" transform="translate(94,24)"/>
<path d="M0 0 C1.61358398 -0.02320313 1.61358398 -0.02320313 3.25976562 -0.046875 C10.06272894 -0.01354756 14.48967968 0.95138882 20.3125 4.5 C20.3125 5.82 20.3125 7.14 20.3125 8.5 C21.9625 8.5 23.6125 8.5 25.3125 8.5 C25.65023437 9.25925781 25.98796875 10.01851562 26.3359375 10.80078125 C26.78195313 11.79464844 27.22796875 12.78851563 27.6875 13.8125 C28.12835938 14.79863281 28.56921875 15.78476562 29.0234375 16.80078125 C30.29492758 19.62745207 30.29492758 19.62745207 32.3125 22.5 C34.24368304 29.38901552 34.46396204 35.47608154 33.3125 42.5 C32.9825 42.5 32.6525 42.5 32.3125 42.5 C32.25642578 43.53060547 32.25642578 43.53060547 32.19921875 44.58203125 C32.13347656 45.48308594 32.06773437 46.38414063 32 47.3125 C31.91298828 48.65248047 31.91298828 48.65248047 31.82421875 50.01953125 C31.24936419 52.80604 30.4918144 53.74135754 28.3125 55.5 C27.3303006 52.22373625 27.19669086 49.27211881 27.21484375 45.859375 C27.21806641 44.78945313 27.22128906 43.71953125 27.22460938 42.6171875 C27.23717773 40.95042969 27.23717773 40.95042969 27.25 39.25 C27.25451172 38.12335937 27.25902344 36.99671875 27.26367188 35.8359375 C27.27544603 33.05723783 27.2918916 30.27864591 27.3125 27.5 C26.6525 27.5 25.9925 27.5 25.3125 27.5 C25.3125 26.51 25.3125 25.52 25.3125 24.5 C24.755625 24.29375 24.19875 24.0875 23.625 23.875 C20.31646768 21.90776457 18.5969372 19.60937286 16.3125 16.5 C16.3125 15.51 16.3125 14.52 16.3125 13.5 C15.6525 13.5 14.9925 13.5 14.3125 13.5 C14.3125 12.84 14.3125 12.18 14.3125 11.5 C13.36375 11.70625 12.415 11.9125 11.4375 12.125 C10.40625 12.24875 9.375 12.3725 8.3125 12.5 C7.6525 11.84 6.9925 11.18 6.3125 10.5 C7.6325 10.5 8.9525 10.5 10.3125 10.5 C10.3125 9.84 10.3125 9.18 10.3125 8.5 C3.36035719 7.18808003 -3.57194903 7.38941942 -10.625 7.4375 C-11.88119141 7.44201172 -13.13738281 7.44652344 -14.43164062 7.45117188 C-17.51697663 7.46290319 -20.60221316 7.479319 -23.6875 7.5 C-23.6875 6.51 -23.6875 5.52 -23.6875 4.5 C-15.65184464 0.98508885 -8.73378038 -0.12695986 0 0 Z " fill="#5291CD" transform="translate(103.6875,3.5)"/>
<path d="M0 0 C1.65 0 3.3 0 5 0 C4.01 0.33 3.02 0.66 2 1 C2.33 2.98 2.66 4.96 3 7 C3.66 7 4.32 7 5 7 C5.77916092 12.02125926 6.13016601 15.97703996 5 21 C5.33 21 5.66 21 6 21 C6.45452075 27.47692067 5.68193958 30.63488804 2 36 C1.01904252 37.01868662 0.02297922 38.02351983 -1 39 C-1.309375 39.680625 -1.61875 40.36125 -1.9375 41.0625 C-3.25915036 43.4725683 -4.54901546 43.88591612 -7 45 C-6.69024532 46.77131561 -6.37709575 48.54203778 -6.0625 50.3125 C-5.80146484 51.79169922 -5.80146484 51.79169922 -5.53515625 53.30078125 C-5.04253153 56.08189213 -5.04253153 56.08189213 -4 59 C-3.34 59 -2.68 59 -2 59 C-1.67 57.35 -1.34 55.7 -1 54 C-0.11248047 53.81824219 -0.11248047 53.81824219 0.79296875 53.6328125 C5.05380691 52.72920898 8.98393087 51.72117248 13 50 C14.32676508 49.64141484 15.65835921 49.2981424 17 49 C16 52 16 52 13 54 C12.21011855 55.95385067 12.21011855 55.95385067 11.8125 58.125 C11.544375 59.40375 11.27625 60.6825 11 62 C8.625 61.6875 8.625 61.6875 6 61 C5.34 60.01 4.68 59.02 4 58 C3.01 58 2.02 58 1 58 C-2.89505053 61.99648414 -5.72296095 66.93991322 -8 72 C-9.60407328 72.02708567 -11.2082785 72.04643483 -12.8125 72.0625 C-13.70582031 72.07410156 -14.59914063 72.08570313 -15.51953125 72.09765625 C-18 72 -18 72 -21 71 C-22.38070946 66.85787163 -22.97855059 63.30843855 -22 59 C-20.24576475 56.75388241 -18.30490456 55.00048294 -16.171875 53.11328125 C-12.07895515 49.1307819 -9.39698721 43.98890286 -6.9921875 38.84375 C-5.54042719 36.14599069 -3.48038456 34.73626919 -1 33 C-0.34 33 0.32 33 1 33 C2.69049152 23.96601333 2.6078928 15.05889188 0.4375 6.12109375 C0 4 0 4 0 0 Z M8 55 C8 55.66 8 56.32 8 57 C8.66 56.67 9.32 56.34 10 56 C9.34 55.67 8.68 55.34 8 55 Z M-18 63 C-18.33 63.99 -18.66 64.98 -19 66 C-17.87890434 67.62493901 -17.87890434 67.62493901 -16 69 C-12.87450983 69.25048636 -12.87450983 69.25048636 -10 69 C-10.54708727 66.46255685 -10.54708727 66.46255685 -12 64 C-15.05272465 63.10169161 -15.05272465 63.10169161 -18 63 Z " fill="#20377C" transform="translate(93,111)"/>
<path d="M0 0 C3.75722587 1.157596 5.01483414 3.50736207 7.21875 6.68359375 C8.20875 7.34359375 9.19875 8.00359375 10.21875 8.68359375 C9.88875 10.00359375 9.55875 11.32359375 9.21875 12.68359375 C10.20875 13.01359375 11.19875 13.34359375 12.21875 13.68359375 C12.87875 13.35359375 13.53875 13.02359375 14.21875 12.68359375 C14.54875 13.01359375 14.87875 13.34359375 15.21875 13.68359375 C16.20875 13.35359375 17.19875 13.02359375 18.21875 12.68359375 C18.87875 13.01359375 19.53875 13.34359375 20.21875 13.68359375 C20.21875 14.67359375 20.21875 15.66359375 20.21875 16.68359375 C20.87875 16.68359375 21.53875 16.68359375 22.21875 16.68359375 C22.71375 15.19859375 22.71375 15.19859375 23.21875 13.68359375 C23.87875 13.68359375 24.53875 13.68359375 25.21875 13.68359375 C25.21875 14.34359375 25.21875 15.00359375 25.21875 15.68359375 C24.55875 15.68359375 23.89875 15.68359375 23.21875 15.68359375 C23.033125 16.64265625 23.033125 16.64265625 22.84375 17.62109375 C22.6375 18.30171875 22.43125 18.98234375 22.21875 19.68359375 C21.22875 20.17859375 21.22875 20.17859375 20.21875 20.68359375 C19.55875 20.35359375 18.89875 20.02359375 18.21875 19.68359375 C17.88875 21.00359375 17.55875 22.32359375 17.21875 23.68359375 C17.21875 22.03359375 17.21875 20.38359375 17.21875 18.68359375 C16.22875 18.68359375 15.23875 18.68359375 14.21875 18.68359375 C14.87875 19.01359375 15.53875 19.34359375 16.21875 19.68359375 C15.55875 21.00359375 14.89875 22.32359375 14.21875 23.68359375 C13.55875 21.37359375 12.89875 19.06359375 12.21875 16.68359375 C11.88875 16.68359375 11.55875 16.68359375 11.21875 16.68359375 C11.21875 18.66359375 11.21875 20.64359375 11.21875 22.68359375 C10.22875 22.35359375 9.23875 22.02359375 8.21875 21.68359375 C8.54875 21.02359375 8.87875 20.36359375 9.21875 19.68359375 C8.22875 19.35359375 7.23875 19.02359375 6.21875 18.68359375 C7.20875 18.68359375 8.19875 18.68359375 9.21875 18.68359375 C9.21875 18.02359375 9.21875 17.36359375 9.21875 16.68359375 C6.57875 17.34359375 3.93875 18.00359375 1.21875 18.68359375 C1.21875 19.34359375 1.21875 20.00359375 1.21875 20.68359375 C1.87875 21.01359375 2.53875 21.34359375 3.21875 21.68359375 C2.22875 21.68359375 1.23875 21.68359375 0.21875 21.68359375 C0.54875 23.00359375 0.87875 24.32359375 1.21875 25.68359375 C-1.09125 25.68359375 -3.40125 25.68359375 -5.78125 25.68359375 C-5.78125 25.02359375 -5.78125 24.36359375 -5.78125 23.68359375 C-6.77125 23.68359375 -7.76125 23.68359375 -8.78125 23.68359375 C-14.82131163 12.76833951 -14.82131163 12.76833951 -13.78125 7.68359375 C-10.12549371 1.12844454 -7.313552 -0.9616846 0 0 Z " fill="#1A3B83" transform="translate(71.78125,40.31640625)"/>
<path d="M0 0 C2.75970408 0.06926968 5.49196042 0.0941736 8.25 0.0625 C9.36761719 0.05573242 9.36761719 0.05573242 10.5078125 0.04882812 C12.3385764 0.03709246 14.16929873 0.0191585 16 0 C16 0.99 16 1.98 16 3 C15.410979 2.98428955 14.82195801 2.9685791 14.21508789 2.95239258 C11.49765973 2.889308 8.78038639 2.85078009 6.0625 2.8125 C5.13630859 2.78736328 4.21011719 2.76222656 3.25585938 2.73632812 C-2.39132338 2.6768841 -6.94779041 3.30004073 -12.22485352 5.3503418 C-14 6 -14 6 -16 6 C-16 6.99 -16 7.98 -16 9 C-15.01 8.67 -14.02 8.34 -13 8 C-9.08734335 7.76635581 -5.16889518 7.81482162 -1.25 7.8125 C-0.1775 7.80025391 0.895 7.78800781 2 7.77539062 C7.73350338 7.76479918 12.59342509 8.04590935 18 10 C18 10.66 18 11.32 18 12 C17.46375 11.9278125 16.9275 11.855625 16.375 11.78125 C-3.02820211 9.48350238 -17.62123034 11.42419388 -34 23 C-35.39610296 24.16261678 -36.77542551 25.34618181 -38.125 26.5625 C-39.07375 27.366875 -40.0225 28.17125 -41 29 C-41.99 28.67 -42.98 28.34 -44 28 C-41.93089968 21.53121933 -37.06395274 18.22997832 -32 14 C-31.35804687 13.44957031 -30.71609375 12.89914062 -30.0546875 12.33203125 C-22.75448677 6.43814625 -9.47743822 -2.53112306 0 0 Z " fill="#5980A8" transform="translate(96,2)"/>
<path d="M0 0 C0.33 0.66 0.66 1.32 1 2 C1.57975586 1.83701416 2.15951172 1.67402832 2.75683594 1.50610352 C6.22673123 0.72322444 9.712623 0.89687641 13.25 0.9375 C13.99507812 0.94201172 14.74015625 0.94652344 15.5078125 0.95117188 C17.3385764 0.96290754 19.16929873 0.9808415 21 1 C21.33 1.99 21.66 2.98 22 4 C21.67 4.33 21.34 4.66 21 5 C21.99 5.33 22.98 5.66 24 6 C23.67 5.01 23.34 4.02 23 3 C25.86724686 3.57344937 26.8614515 3.8614515 29 6 C24.71 6.66 20.42 7.32 16 8 C15.731875 9.0725 15.46375 10.145 15.1875 11.25 C14.13882569 14.56160307 13.37247839 16.52866834 11 19 C10.34 19 9.68 19 9 19 C9 19.99 9 20.98 9 22 C8.01 21.67 7.02 21.34 6 21 C6.45261358 19.56068883 6.91232979 18.12361001 7.375 16.6875 C7.63023438 15.88699219 7.88546875 15.08648437 8.1484375 14.26171875 C9 12 9 12 11 9 C10.39671875 8.97421875 9.7934375 8.9484375 9.171875 8.921875 C2.5626072 8.45283019 2.5626072 8.45283019 -0.5625 5.9375 C-1.036875 5.298125 -1.51125 4.65875 -2 4 C-1.34 2.68 -0.68 1.36 0 0 Z " fill="#454D89" transform="translate(31,32)"/>
<path d="M0 0 C0.99 0 1.98 0 3 0 C3.875 2.0625 3.875 2.0625 4 5 C2.63500473 6.97405962 1.11786332 8.63233584 -0.5546875 10.3515625 C-2.23191563 12.04965701 -2.23191563 12.04965701 -3 15 C-6 16 -6 16 -9 17 C-9.33 17.99 -9.66 18.98 -10 20 C-11.55859375 21.60546875 -11.55859375 21.60546875 -13.4375 23.1875 C-14.05496094 23.71730469 -14.67242187 24.24710938 -15.30859375 24.79296875 C-17 26 -17 26 -19 26 C-19 26.66 -19 27.32 -19 28 C-24.75 31 -24.75 31 -27 31 C-27 31.66 -27 32.32 -27 33 C-29.64 33.66 -32.28 34.32 -35 35 C-35 34.01 -35 33.02 -35 32 C-33.6078125 31.5359375 -33.6078125 31.5359375 -32.1875 31.0625 C-23.15396297 27.17789584 -16.13412114 19.45751754 -10 12 C-9.34 11.34 -8.68 10.68 -8 10 C-7.34 10.33 -6.68 10.66 -6 11 C-5.7525 10.29875 -5.505 9.5975 -5.25 8.875 C-3.82049359 5.58713526 -2.18301951 2.84454057 0 0 Z " fill="#607DA8" transform="translate(120,80)"/>
<path d="M0 0 C0.99 0 1.98 0 3 0 C3.61875 0.66 4.2375 1.32 4.875 2 C6.83586083 4.25509258 6.83586083 4.25509258 9.625 4.25 C10.800625 4.12625 10.800625 4.12625 12 4 C13.66666667 4 15.33333333 4 17 4 C15.55049545 7.7910119 13.84827434 11.3874638 12 15 C10.39592672 15.02708567 8.7917215 15.04643483 7.1875 15.0625 C5.84751953 15.07990234 5.84751953 15.07990234 4.48046875 15.09765625 C2 15 2 15 -1 14 C-1.93385816 11.19842552 -2.16354595 9.34552197 -2.1875 6.4375 C-2.20167969 5.65246094 -2.21585937 4.86742187 -2.23046875 4.05859375 C-2 2 -2 2 0 0 Z M2 6 C1.67 6.99 1.34 7.98 1 9 C2.12109566 10.62493901 2.12109566 10.62493901 4 12 C7.12549017 12.25048636 7.12549017 12.25048636 10 12 C9.45291273 9.46255685 9.45291273 9.46255685 8 7 C4.94727535 6.10169161 4.94727535 6.10169161 2 6 Z " fill="#29366B" transform="translate(73,168)"/>
<path d="M0 0 C5.89835333 0.05062964 10.74242691 1.42714508 16 4 C8.83679297 8.05915065 0.04404844 8.1517745 -8 8 C-8.33 8.33 -8.66 8.66 -9 9 C-12.4375 8.75 -12.4375 8.75 -16 8 C-16.66 7.01 -17.32 6.02 -18 5 C-16.02 5 -14.04 5 -12 5 C-12 4.34 -12 3.68 -12 3 C-11.21753906 2.86722656 -10.43507813 2.73445313 -9.62890625 2.59765625 C-8.61699219 2.42105469 -7.60507812 2.24445312 -6.5625 2.0625 C-5.55316406 1.88847656 -4.54382813 1.71445312 -3.50390625 1.53515625 C-1.0712562 1.25248903 -1.0712562 1.25248903 0 0 Z " fill="#2B3B77" transform="translate(64,29)"/>
<path d="M0 0 C1.175625 0.5259375 1.175625 0.5259375 2.375 1.0625 C3.674375 1.5265625 3.674375 1.5265625 5 2 C5.66 1.67 6.32 1.34 7 1 C7.33 1.33 7.66 1.66 8 2 C8.99 1.67 9.98 1.34 11 1 C11.66 1.33 12.32 1.66 13 2 C13 2.99 13 3.98 13 5 C13.66 5 14.32 5 15 5 C15.33 4.01 15.66 3.02 16 2 C16.66 2 17.32 2 18 2 C18 2.66 18 3.32 18 4 C17.34 4 16.68 4 16 4 C15.87625 4.639375 15.7525 5.27875 15.625 5.9375 C15.315625 6.9584375 15.315625 6.9584375 15 8 C14.01 8.495 14.01 8.495 13 9 C12.34 8.67 11.68 8.34 11 8 C10.67 9.32 10.34 10.64 10 12 C10 10.35 10 8.7 10 7 C9.01 7 8.02 7 7 7 C7.66 7.33 8.32 7.66 9 8 C8.34 9.32 7.68 10.64 7 12 C6.34 9.69 5.68 7.38 5 5 C4.67 5 4.34 5 4 5 C4 6.98 4 8.96 4 11 C3.01 10.67 2.02 10.34 1 10 C1.33 9.34 1.66 8.68 2 8 C1.01 7.67 0.02 7.34 -1 7 C-0.01 7 0.98 7 2 7 C2 6.34 2 5.68 2 5 C0.02 5.33 -1.96 5.66 -4 6 C-1 4 -1 4 1 4 C0.67 2.68 0.34 1.36 0 0 Z " fill="#2D418E" transform="translate(79,52)"/>
<path d="M0 0 C3.1875 -0.375 3.1875 -0.375 7 0 C9.75 2.875 9.75 2.875 12 6 C12.99 6.66 13.98 7.32 15 8 C15 8.66 15 9.32 15 10 C13.35 9.67 11.7 9.34 10 9 C10 8.34 10 7.68 10 7 C9.01 7.495 9.01 7.495 8 8 C8 8.99 8 9.98 8 11 C7.34 11 6.68 11 6 11 C5.67 9.68 5.34 8.36 5 7 C3.35 7 1.7 7 0 7 C-1.125 2.25 -1.125 2.25 0 0 Z " fill="#213C8F" transform="translate(67,41)"/>
<path d="M0 0 C-1.40819037 2.81638073 -3.2650526 3.2830044 -6.0625 4.6875 C-10.83359664 7.19403191 -14.53815545 9.9798119 -18.34375 13.77734375 C-19.16359375 14.38255859 -19.16359375 14.38255859 -20 15 C-20.99 14.67 -21.98 14.34 -23 14 C-21.63422544 9.71506993 -19.79318655 7.56854295 -16.375 4.6875 C-15.55773438 3.99011719 -14.74046875 3.29273438 -13.8984375 2.57421875 C-12.95871094 1.79498047 -12.95871094 1.79498047 -12 1 C-11.67 1.99 -11.34 2.98 -11 4 C-10.113125 3.34 -9.22625 2.68 -8.3125 2 C-5.01888014 0.01139933 -3.71748127 -0.43735074 0 0 Z " fill="#6079A8" transform="translate(75,16)"/>
<path d="M0 0 C0.66 0.33 1.32 0.66 2 1 C2.33 1.99 2.66 2.98 3 4 C3.66 4 4.32 4 5 4 C4.37183502 7.94949704 3.1354471 11.19892028 1.4375 14.8125 C0.98246094 15.78832031 0.52742187 16.76414062 0.05859375 17.76953125 C-0.29074219 18.50558594 -0.64007813 19.24164063 -1 20 C-2.32 19.67 -3.64 19.34 -5 19 C-4.80664062 18.38253906 -4.61328125 17.76507813 -4.4140625 17.12890625 C-2.67003849 11.45651132 -1.21782106 5.80806965 0 0 Z " fill="#5B88B8" transform="translate(128,56)"/>
<path d="M0 0 C5.28 0 10.56 0 16 0 C15.01 0.495 15.01 0.495 14 1 C13.690625 2.093125 13.38125 3.18625 13.0625 4.3125 C12.09968207 7.65404457 11.37471254 9.52634111 9 12 C8.34 12 7.68 12 7 12 C7 12.99 7 13.98 7 15 C6.01 14.67 5.02 14.34 4 14 C4.45261358 12.56068883 4.91232979 11.12361001 5.375 9.6875 C5.75785156 8.48673828 5.75785156 8.48673828 6.1484375 7.26171875 C7 5 7 5 9 2 C6.03 1.67 3.06 1.34 0 1 C0 0.67 0 0.34 0 0 Z " fill="#706D8B" transform="translate(33,39)"/>
<path d="M0 0 C0.66 0 1.32 0 2 0 C1.5097542 5.65119704 -0.74151945 9.59704519 -3.5625 14.375 C-3.98724609 15.11105469 -4.41199219 15.84710938 -4.84960938 16.60546875 C-5.89156141 18.40839699 -6.94466854 20.20487053 -8 22 C-8.66 22 -9.32 22 -10 22 C-10 21.01 -10 20.02 -10 19 C-10.99 18.67 -11.98 18.34 -13 18 C-11.68 16.68 -10.36 15.36 -9 14 C-8.01 14.33 -7.02 14.66 -6 15 C-5.72736328 14.00419922 -5.72736328 14.00419922 -5.44921875 12.98828125 C-2.78647148 3.63452802 -2.78647148 3.63452802 0 0 Z " fill="#5578A1" transform="translate(133,61)"/>
<path d="M0 0 C0.99 0 1.98 0 3 0 C3 0.66 3 1.32 3 2 C1.390625 3.55078125 1.390625 3.55078125 -0.75 5.3125 C-3.91938072 7.98998389 -6.41798906 10.74857881 -9 14 C-9.99 14.33 -10.98 14.66 -12 15 C-12.99 16.485 -12.99 16.485 -14 18 C-14.66 18 -15.32 18 -16 18 C-16 18.66 -16 19.32 -16 20 C-18.64 20.66 -21.28 21.32 -24 22 C-24 21.01 -24 20.02 -24 19 C-22.6078125 18.5359375 -22.6078125 18.5359375 -21.1875 18.0625 C-13.8802705 14.92870849 -7.48523907 9.04162066 -2.5 2.9375 C-1.675 1.968125 -0.85 0.99875 0 0 Z " fill="#93A4C6" transform="translate(109,93)"/>
<path d="M0 0 C0 0.99 0 1.98 0 3 C-2.5 5.1875 -2.5 5.1875 -5 7 C-1.7 5.02 1.6 3.04 5 1 C3.82926829 6.85365854 3.82926829 6.85365854 1 9 C-4.44444444 12 -4.44444444 12 -7 12 C-7.8125 9.3125 -7.8125 9.3125 -8 6 C-5.48598399 2.85747998 -3.8303089 1.27676963 0 0 Z " fill="#223272" transform="translate(137,130)"/>
<path d="M0 0 C3.35409194 -0.05859857 6.70805017 -0.09379582 10.0625 -0.125 C11.47692383 -0.15013672 11.47692383 -0.15013672 12.91992188 -0.17578125 C18.36523938 -0.21372771 22.85499388 0.18747357 28 2 C28 2.66 28 3.32 28 4 C26.741875 3.855625 25.48375 3.71125 24.1875 3.5625 C15.8165953 2.71450676 7.4014962 2.40541101 -1 2 C-0.67 1.34 -0.34 0.68 0 0 Z " fill="#507AA5" transform="translate(86,10)"/>
<path d="M0 0 C1.65 1.32 3.3 2.64 5 4 C4.67 5.65 4.34 7.3 4 9 C5.65 9.33 7.3 9.66 9 10 C8.67 10.66 8.34 11.32 8 12 C6.20767663 11.69128878 4.41615679 11.37790936 2.625 11.0625 C1.62726563 10.88847656 0.62953125 10.71445312 -0.3984375 10.53515625 C-3 10 -3 10 -5 9 C-5.33 9.99 -5.66 10.98 -6 12 C-6 10.02 -6 8.04 -6 6 C-3.125 5.375 -3.125 5.375 0 5 C0.66 5.66 1.32 6.32 2 7 C1.67 6.401875 1.34 5.80375 1 5.1875 C0 3 0 3 0 0 Z " fill="#535C8D" transform="translate(96,28)"/>
<path d="M0 0 C3.27053517 -0.11608726 6.5405418 -0.18720711 9.8125 -0.25 C10.74126953 -0.28351563 11.67003906 -0.31703125 12.62695312 -0.3515625 C13.9659668 -0.37089844 13.9659668 -0.37089844 15.33203125 -0.390625 C16.56530151 -0.4220459 16.56530151 -0.4220459 17.82348633 -0.45410156 C20 -0 20 -0 21.79174805 2.02441406 C22.38983276 3.0023291 22.38983276 3.0023291 23 4 C19.30458414 4.95024979 16.69541586 4.95024979 13 4 C13 3.67 13 3.34 13 3 C10.69 2.67 8.38 2.34 6 2 C6 2.66 6 3.32 6 4 C2.7 4 -0.6 4 -4 4 C-4 3.67 -4 3.34 -4 3 C-2.35 2.67 -0.7 2.34 1 2 C0.67 1.34 0.34 0.68 0 0 Z " fill="#4D96D8" transform="translate(94,4)"/>
<path d="M0 0 C2 3.75 2 3.75 2 6 C1.34 6 0.68 6 0 6 C-0.1546875 6.8353125 -0.1546875 6.8353125 -0.3125 7.6875 C-1.62146502 12.09038233 -3.1000342 14.44900053 -7.0625 16.875 C-8.5165625 17.431875 -8.5165625 17.431875 -10 18 C-10.66 17.67 -11.32 17.34 -12 17 C-11.46890625 16.443125 -10.9378125 15.88625 -10.390625 15.3125 C-5.89590089 10.45688564 -2.64719747 6.06649419 0 0 Z " fill="#323B78" transform="translate(86,150)"/>
<path d="M0 0 C0.33 0 0.66 0 1 0 C1.13277344 0.62648437 1.26554687 1.25296875 1.40234375 1.8984375 C1.57894531 2.71570312 1.75554687 3.53296875 1.9375 4.375 C2.19853516 5.59316406 2.19853516 5.59316406 2.46484375 6.8359375 C2.92330693 9.029463 2.92330693 9.029463 4 11 C4.41059292 15.61917038 3.83584686 18.29158487 1 22 C0.34 22 -0.32 22 -1 22 C-0.47731534 19.23723823 0.10869587 16.6739124 1 14 C1.66 14 2.32 14 3 14 C3 13.34 3 12.68 3 12 C2.54625 12.495 2.0925 12.99 1.625 13.5 C0 15 0 15 -2 15 C-2 14.01 -2 13.02 -2 12 C-1.34 12 -0.68 12 0 12 C0 8.04 0 4.08 0 0 Z " fill="#132F85" transform="translate(94,42)"/>
<path d="M0 0 C0.66 0 1.32 0 2 0 C2.02709444 2.08326131 2.04643873 4.16662441 2.0625 6.25 C2.07410156 7.41015625 2.08570312 8.5703125 2.09765625 9.765625 C2.01782092 12.40977128 1.78643778 14.49826091 1 17 C-0.65 17 -2.3 17 -4 17 C-4 17.66 -4 18.32 -4 19 C-4.66 18.67 -5.32 18.34 -6 18 C-5.65066406 17.3709375 -5.30132812 16.741875 -4.94140625 16.09375 C-2.01558215 10.59021685 -0.34617589 6.23116607 0 0 Z " fill="#223269" transform="translate(91,37)"/>
<path d="M0 0 C0.33 0.99 0.66 1.98 1 3 C-0.20695635 4.53316077 -1.42469897 6.06141205 -2.734375 7.5078125 C-4.13820737 9.02714485 -4.13820737 9.02714485 -5.0625 11.3125 C-6 13 -6 13 -8.125 13.75 C-9.053125 13.87375 -9.053125 13.87375 -10 14 C-9.63265306 7.63265306 -9.63265306 7.63265306 -6.5625 4.5625 C-4 3 -4 3 -2 3 C-2 2.34 -2 1.68 -2 1 C-1.34 0.67 -0.68 0.34 0 0 Z " fill="#273877" transform="translate(96,141)"/>
<path d="M0 0 C0.33 0 0.66 0 1 0 C2.12880057 3.31114834 3.21302675 6.58978257 4 10 C3.01 9.34 2.02 8.68 1 8 C-2.12521833 7.83300768 -2.12521833 7.83300768 -5 8 C-5 8.99 -5 9.98 -5 11 C-6.32 10.67 -7.64 10.34 -9 10 C-9.33 8.35 -9.66 6.7 -10 5 C-5.545 4.505 -5.545 4.505 -1 4 C-0.67 2.68 -0.34 1.36 0 0 Z " fill="#1F2555" transform="translate(95,26)"/>
<path d="M0 0 C0.6875 1.75 0.6875 1.75 1 4 C-0.4375 6.25 -0.4375 6.25 -2 8 C-4.9375 7.1875 -4.9375 7.1875 -8 6 C-8.33 5.01 -8.66 4.02 -9 3 C-5.55930376 0.70620251 -4.27709699 0 0 0 Z " fill="#475074" transform="translate(108,25)"/>
<path d="M0 0 C0.33 0.33 0.66 0.66 1 1 C3.67058851 1.14115161 6.32432238 1.04247107 9 1 C8 2.5 8 2.5 6 4 C3.3103876 4.22683478 0.70517819 4.08726381 -2 4 C-2.33 4.33 -2.66 4.66 -3 5 C-6.4375 4.75 -6.4375 4.75 -10 4 C-10.66 3.01 -11.32 2.02 -12 1 C-7.94241601 0.22712686 -4.13300269 -0.19223268 0 0 Z " fill="#162367" transform="translate(58,33)"/>
<path d="M0 0 C-1 3 -1 3 -4 5 C-4.73343428 8.06556598 -4.73343428 8.06556598 -5 11 C-7.35964273 10.59316505 -8.85934088 10.10185661 -10.8125 8.6875 C-12 7 -12 7 -11.6875 4.8125 C-11.3471875 3.9153125 -11.3471875 3.9153125 -11 3 C-10.071875 2.87625 -9.14375 2.7525 -8.1875 2.625 C-5.03685323 2.00722612 -3.08513228 0 0 0 Z M-9 6 C-9 6.66 -9 7.32 -9 8 C-8.34 7.67 -7.68 7.34 -7 7 C-7.66 6.67 -8.32 6.34 -9 6 Z " fill="#223169" transform="translate(110,160)"/>
<path d="M0 0 C0.66 1.32 1.32 2.64 2 4 C5.12197478 2.6910428 5.12197478 2.6910428 7 0 C7.75 1.75 7.75 1.75 8 4 C6.0625 6.25 6.0625 6.25 4 8 C3.67 7.34 3.34 6.68 3 6 C-1.455 8.97 -1.455 8.97 -6 12 C-6.66 11.67 -7.32 11.34 -8 11 C-7.25943359 10.56300781 -7.25943359 10.56300781 -6.50390625 10.1171875 C-2.10060881 7.36289286 -2.10060881 7.36289286 -0.0625 2.6875 C-0.041875 1.800625 -0.02125 0.91375 0 0 Z " fill="#565A95" transform="translate(138,126)"/>
<path d="M0 0 C1.32 0.33 2.64 0.66 4 1 C4.33 4.63 4.66 8.26 5 12 C3.02 12.99 3.02 12.99 1 14 C0.67 9.38 0.34 4.76 0 0 Z " fill="#26346B" transform="translate(89,96)"/>
<path d="M0 0 C5.28 0 10.56 0 16 0 C16 0.99 16 1.98 16 3 C10.72 3 5.44 3 0 3 C0 2.01 0 1.02 0 0 Z " fill="#538BBF" transform="translate(96,2)"/>
<path d="M0 0 C1.32 0.33 2.64 0.66 4 1 C3.67 2.32 3.34 3.64 3 5 C2.34 5 1.68 5 1 5 C0.67 5.99 0.34 6.98 0 8 C-1.55859375 9.60546875 -1.55859375 9.60546875 -3.4375 11.1875 C-4.05496094 11.71730469 -4.67242187 12.24710938 -5.30859375 12.79296875 C-7 14 -7 14 -9 14 C-9 14.66 -9 15.32 -9 16 C-10.65 16.33 -12.3 16.66 -14 17 C-13.67 16.34 -13.34 15.68 -13 15 C-12.01 15 -11.02 15 -10 15 C-9.773125 14.4225 -9.54625 13.845 -9.3125 13.25 C-7.66511725 10.42591529 -5.56545162 9.0023037 -3 7 C-2.1646875 5.88625 -2.1646875 5.88625 -1.3125 4.75 C-0.879375 4.1725 -0.44625 3.595 0 3 C0.66 3 1.32 3 2 3 C2 2.34 2 1.68 2 1 C1.34 0.67 0.68 0.34 0 0 Z " fill="#6889C4" transform="translate(110,92)"/>
<path d="M0 0 C0.99 1.485 0.99 1.485 2 3 C4.64691668 3.80092254 4.64691668 3.80092254 7.625 4.1875 C9.12933594 4.42533203 9.12933594 4.42533203 10.6640625 4.66796875 C11.43492188 4.77753906 12.20578125 4.88710937 13 5 C13 5.99 13 6.98 13 8 C11.39592672 8.02708567 9.7917215 8.04643483 8.1875 8.0625 C6.84751953 8.07990234 6.84751953 8.07990234 5.48046875 8.09765625 C3 8 3 8 0 7 C0 4.69 0 2.38 0 0 Z " fill="#24284E" transform="translate(72,175)"/>
<path d="M0 0 C0.66 0.66 1.32 1.32 2 2 C1.34 2.66 0.68 3.32 0 4 C0.33 4.66 0.66 5.32 1 6 C-0.85625 6.1546875 -0.85625 6.1546875 -2.75 6.3125 C-6.327552 6.7423119 -8.26182593 7.57776909 -11 10 C-11.66 10 -12.32 10 -13 10 C-13 9.01 -13 8.02 -13 7 C-12.360625 6.87625 -11.72125 6.7525 -11.0625 6.625 C-10.381875 6.41875 -9.70125 6.2125 -9 6 C-8.67 5.34 -8.34 4.68 -8 4 C-7.01 3.67 -6.02 3.34 -5 3 C-4.67 2.34 -4.34 1.68 -4 1 C-2.0625 0.25 -2.0625 0.25 0 0 Z " fill="#568AC3" transform="translate(77,10)"/>
<path d="M0 0 C3.10442031 1.3904499 5.3656443 3.01571598 7.8125 5.375 C8.43769531 5.96023437 9.06289062 6.54546875 9.70703125 7.1484375 C11 9 11 9 10.69921875 11.2265625 C10.46847656 11.81179687 10.23773438 12.39703125 10 13 C8.5 11.625 8.5 11.625 7 10 C7 9.34 7 8.68 7 8 C6.01 8 5.02 8 4 8 C3.67 6.68 3.34 5.36 3 4 C2.01 4 1.02 4 0 4 C0 2.68 0 1.36 0 0 Z " fill="#1A2B64" transform="translate(118,99)"/>
<path d="M0 0 C1.98 0 3.96 0 6 0 C5.01 2.31 4.02 4.62 3 7 C4.65 6.67 6.3 6.34 8 6 C3.25 10.875 3.25 10.875 1 12 C-0.47075246 7.58774263 -1.36884358 4.51718381 0 0 Z " fill="#1E3C94" transform="translate(93,96)"/>
<path d="M0 0 C0.66 0.33 1.32 0.66 2 1 C1.67 1.99 1.34 2.98 1 4 C0.34 4 -0.32 4 -1 4 C-0.25640327 9.55053286 -0.25640327 9.55053286 1 15 C-0.9375 14.2734375 -0.9375 14.2734375 -3 13 C-4.09597496 10.04315089 -4.2615695 7.13326863 -4 4 C-2.0625 1.4375 -2.0625 1.4375 0 0 Z " fill="#273972" transform="translate(62,44)"/>
<path d="M0 0 C0.1875 2.375 0.1875 2.375 0 5 C-3.4352048 7.29013653 -4.985331 7.17842973 -9 7 C-8.67 5.35 -8.34 3.7 -8 2 C-2.25 0 -2.25 0 0 0 Z " fill="#2C366E" transform="translate(81,57)"/>
<path d="M0 0 C3.81287042 1.44626119 5.32707177 3.30194812 7 7 C6.875 9.25 6.875 9.25 6 11 C5.01 11.33 4.02 11.66 3 12 C2.34 10.35 1.68 8.7 1 7 C1.66 7 2.32 7 3 7 C2.505 6.21625 2.01 5.4325 1.5 4.625 C0 2 0 2 0 0 Z " fill="#1F3468" transform="translate(104,82)"/>
<path d="M0 0 C0.99 0.495 0.99 0.495 2 1 C3.72366269 7.39065581 4.46993777 13.53227381 3 20 C2.67 20 2.34 20 2 20 C0.74158054 13.25846717 -0.26404456 6.86515862 0 0 Z " fill="#6A89A5" transform="translate(136,24)"/>
<path d="M0 0 C0.33 0 0.66 0 1 0 C1.33 1.65 1.66 3.3 2 5 C2.66 3.68 3.32 2.36 4 1 C4.99 2.32 5.98 3.64 7 5 C5.95125002 7.62187494 5.35068687 8.79371361 2.875 10.25 C2.25625 10.4975 1.6375 10.745 1 11 C-0.17571451 7.32589215 -0.07366746 3.83070817 0 0 Z " fill="#203A8F" transform="translate(128,120)"/>
<path d="M0 0 C3.63 0.33 7.26 0.66 11 1 C10.01 1.33 9.02 1.66 8 2 C7.67 2.66 7.34 3.32 7 4 C8.65177773 5.65177773 10.84855958 6.17252291 13 7 C13 7.33 13 7.66 13 8 C10.69 8 8.38 8 6 8 C6 7.34 6 6.68 6 6 C5.01 6 4.02 6 3 6 C2.01 4.02 1.02 2.04 0 0 Z " fill="#6774A7" transform="translate(60,58)"/>
<path d="M0 0 C4.62 0 9.24 0 14 0 C13.67 0.66 13.34 1.32 13 2 C12.01 2 11.02 2 10 2 C10.66 2.66 11.32 3.32 12 4 C8.37 4 4.74 4 1 4 C0.67 2.68 0.34 1.36 0 0 Z " fill="#1C2765" transform="translate(30,35)"/>
<path d="M0 0 C0.99 0 1.98 0 3 0 C2.67 0.99 2.34 1.98 2 3 C1.814375 3.70125 1.62875 4.4025 1.4375 5.125 C0 7 0 7 -1.91015625 7.4765625 C-3.93223725 7.72620213 -5.96679446 7.86882545 -8 8 C-8.33 6.68 -8.66 5.36 -9 4 C-8.01 4.33 -7.02 4.66 -6 5 C-2.73795271 3.81380099 -1.99954129 2.99931194 0 0 Z " fill="#78749C" transform="translate(94,24)"/>
<path d="M0 0 C0.66 0 1.32 0 2 0 C2 0.66 2 1.32 2 2 C3.98 1.67 5.96 1.34 8 1 C8.66 1.99 9.32 2.98 10 4 C6.37 4.66 2.74 5.32 -1 6 C-1 3 -1 3 0 0 Z " fill="#5986B3" transform="translate(78,9)"/>
<path d="M0 0 C1.32 0.33 2.64 0.66 4 1 C4 2.32 4 3.64 4 5 C5.65 5 7.3 5 9 5 C9 5.99 9 6.98 9 8 C6.36 7.67 3.72 7.34 1 7 C0.67 4.69 0.34 2.38 0 0 Z " fill="#5A94CE" transform="translate(120,7)"/>
<path d="M0 0 C0.763125 0.20625 1.52625 0.4125 2.3125 0.625 C1.9825 1.615 1.6525 2.605 1.3125 3.625 C0.9825 2.965 0.6525 2.305 0.3125 1.625 C-1.3375 3.935 -2.9875 6.245 -4.6875 8.625 C-5.3475 8.295 -6.0075 7.965 -6.6875 7.625 C-6.336875 7.00625 -5.98625 6.3875 -5.625 5.75 C-5.315625 5.04875 -5.00625 4.3475 -4.6875 3.625 C-5.0175 2.965 -5.3475 2.305 -5.6875 1.625 C-2.6875 -0.375 -2.6875 -0.375 0 0 Z " fill="#28438A" transform="translate(116.6875,95.375)"/>
<path d="M0 0 C2.70249451 0.37275786 3.79935135 0.78448849 5.6875 2.8125 C6.95294755 4.92157924 7.57033648 6.59388429 8 9 C5.5625 8.25 5.5625 8.25 3 7 C2.1875 4.875 2.1875 4.875 2 3 C1.34 3 0.68 3 0 3 C0 2.01 0 1.02 0 0 Z " fill="#1B2B6B" transform="translate(94,71)"/>
<path d="M0 0 C-0.99 0.33 -1.98 0.66 -3 1 C-3 1.66 -3 2.32 -3 3 C-2.34 3.66 -1.68 4.32 -1 5 C-2.65 5.66 -4.3 6.32 -6 7 C-6 6.01 -6 5.02 -6 4 C-7.98 4.99 -7.98 4.99 -10 6 C-7.82304683 0.97626191 -5.41372848 -0.29263397 0 0 Z " fill="#314083" transform="translate(70,40)"/>
<path d="M0 0 C0.33 0 0.66 0 1 0 C1 1.65 1 3.3 1 5 C1.99 5 2.98 5 4 5 C4.66 6.98 5.32 8.96 6 11 C3.0625 9.9375 3.0625 9.9375 0 8 C-0.9375 4.375 -0.9375 4.375 -1 1 C-0.67 0.67 -0.34 0.34 0 0 Z " fill="#273870" transform="translate(67,71)"/>
<path d="M0 0 C0.99 0 1.98 0 3 0 C3 0.66 3 1.32 3 2 C1.35546875 3.62109375 1.35546875 3.62109375 -0.8125 5.4375 C-3.31102718 7.54463676 -5.7242056 9.65241398 -8 12 C-8.66 11.67 -9.32 11.34 -10 11 C-9.36191406 10.37351562 -8.72382812 9.74703125 -8.06640625 9.1015625 C-7.24011719 8.28429687 -6.41382812 7.46703125 -5.5625 6.625 C-4.73878906 5.81289062 -3.91507812 5.00078125 -3.06640625 4.1640625 C-0.96565328 2.17651485 -0.96565328 2.17651485 0 0 Z " fill="#B7D8F8" transform="translate(109,93)"/>
<path d="M0 0 C0.99 0.33 1.98 0.66 3 1 C2.34 1 1.68 1 1 1 C1 1.66 1 2.32 1 3 C1.66 3.33 2.32 3.66 3 4 C2.01 4 1.02 4 0 4 C-0.33 4.99 -0.66 5.98 -1 7 C-3.31 6.34 -5.62 5.68 -8 5 C-7 3 -7 3 -5.125 2.3125 C-3 2 -3 2 0 3 C0 2.01 0 1.02 0 0 Z " fill="#495895" transform="translate(72,58)"/>
<path d="M0 0 C-3.4352048 2.29013653 -4.985331 2.17842973 -9 2 C-9.33 2.99 -9.66 3.98 -10 5 C-12.475 4.01 -12.475 4.01 -15 3 C-14.67 2.34 -14.34 1.68 -14 1 C-9.45906828 -0.41904116 -4.7056901 -0.09226843 0 0 Z " fill="#5A6493" transform="translate(84,27)"/>
<path d="M0 0 C0.33 0.66 0.66 1.32 1 2 C1.99 2.33 2.98 2.66 4 3 C4 3.66 4 4.32 4 5 C4.99 4.67 5.98 4.34 7 4 C7 5.32 7 6.64 7 8 C4.625 7.6875 4.625 7.6875 2 7 C0 4 0 4 0 0 Z " fill="#25234A" transform="translate(97,165)"/>
<path d="M0 0 C0.33 0.99 0.66 1.98 1 3 C-0.75 5.6875 -0.75 5.6875 -3 8 C-3.99 8 -4.98 8 -6 8 C-5.65120368 4.74456771 -4.97866739 3.98126893 -2.4375 1.75 C-1.633125 1.1725 -0.82875 0.595 0 0 Z " fill="#282B54" transform="translate(141,131)"/>
<path d="M0 0 C0.66 0.33 1.32 0.66 2 1 C-0.46153846 5.8 -0.46153846 5.8 -3.1875 6.8125 C-3.785625 6.874375 -4.38375 6.93625 -5 7 C-5 6.01 -5 5.02 -5 4 C-5.66 3.67 -6.32 3.34 -7 3 C-6.67 2.34 -6.34 1.68 -6 1 C-4.7934375 1.0309375 -4.7934375 1.0309375 -3.5625 1.0625 C-1.06645115 1.29633621 -1.06645115 1.29633621 0 0 Z " fill="#55769C" transform="translate(118,89)"/>
<path d="M0 0 C4.29870596 -0.16533484 7.26952156 -0.21065389 11 2 C11.66 2 12.32 2 13 2 C13 2.66 13 3.32 13 4 C11.3954444 3.85851011 9.79136233 3.71164314 8.1875 3.5625 C7.29417969 3.48128906 6.40085937 3.40007813 5.48046875 3.31640625 C3 3 3 3 0 2 C0 1.34 0 0.68 0 0 Z " fill="#438DCF" transform="translate(101,6)"/>
<path d="M0 0 C0.86625 0.556875 0.86625 0.556875 1.75 1.125 C-0.56 2.775 -2.87 4.425 -5.25 6.125 C-5.58 4.475 -5.91 2.825 -6.25 1.125 C-2.80384615 -1.09038462 -2.80384615 -1.09038462 0 0 Z " fill="#223A7A" transform="translate(116.25,153.875)"/>
<path d="M0 0 C0.763125 0.20625 1.52625 0.4125 2.3125 0.625 C2.3125 2.605 2.3125 4.585 2.3125 6.625 C1.3225 6.295 0.3325 5.965 -0.6875 5.625 C-0.3575 4.965 -0.0275 4.305 0.3125 3.625 C-0.6775 3.295 -1.6675 2.965 -2.6875 2.625 C-1.6975 2.625 -0.7075 2.625 0.3125 2.625 C0.3125 1.965 0.3125 1.305 0.3125 0.625 C-1.6675 0.955 -3.6475 1.285 -5.6875 1.625 C-2.6875 -0.375 -2.6875 -0.375 0 0 Z " fill="#5364A2" transform="translate(80.6875,56.375)"/>
<path d="M0 0 C0.99 0 1.98 0 3 0 C2.45276317 3.37462715 1.9451 5.08235 0 8 C-0.66 8 -1.32 8 -2 8 C-1.47731534 5.23723823 -0.89130413 2.6739124 0 0 Z " fill="#21306E" transform="translate(95,56)"/>
<path d="M0 0 C-1.29299694 2.88437779 -2.65941363 4.87219421 -5 7 C-5.99 6.67 -6.98 6.34 -8 6 C-3.8 0 -3.8 0 0 0 Z " fill="#21326B" transform="translate(128,143)"/>
<path d="M0 0 C0.33 0.66 0.66 1.32 1 2 C-2.96 2.66 -6.92 3.32 -11 4 C-11 3.34 -11 2.68 -11 2 C-8.70370006 0.85185003 -6.92301914 0.69230191 -4.375 0.4375 C-3.14910156 0.31181641 -3.14910156 0.31181641 -1.8984375 0.18359375 C-0.95871094 0.09271484 -0.95871094 0.09271484 0 0 Z " fill="#172E7A" transform="translate(115,128)"/>
<path d="M0 0 C1 2 2 4 3 6 C1.35 6.66 -0.3 7.32 -2 8 C-2.66 7.34 -3.32 6.68 -4 6 C-2.68 4.02 -1.36 2.04 0 0 Z " fill="#6F8AB1" transform="translate(118,83)"/>
<path d="M0 0 C3.59930552 2.62652025 6.07666989 4.93963643 8 9 C7.67 9.66 7.34 10.32 7 11 C4.15214911 8.28159688 2.18336447 5.2750467 0 2 C0 1.34 0 0.68 0 0 Z " fill="#45547C" transform="translate(98,72)"/>
<path d="M0 0 C-0.99 0.66 -1.98 1.32 -3 2 C-2.01 2.99 -1.02 3.98 0 5 C-4.455 4.01 -4.455 4.01 -9 3 C-8.67 2.01 -8.34 1.02 -8 0 C-2.25 -1.125 -2.25 -1.125 0 0 Z " fill="#364786" transform="translate(80,64)"/>
<path d="M0 0 C1.1725131 0.95117134 2.33787015 1.91117009 3.5 2.875 C4.47453125 3.67550781 4.47453125 3.67550781 5.46875 4.4921875 C5.9740625 4.98976563 6.479375 5.48734375 7 6 C7 6.66 7 7.32 7 8 C5.35 7.67 3.7 7.34 2 7 C2 6.34 2 5.68 2 5 C1.34 4.67 0.68 4.34 0 4 C0 2.68 0 1.36 0 0 Z " fill="#3A4B7C" transform="translate(75,43)"/>
<path d="M0 0 C2.31 0 4.62 0 7 0 C7.66 1.98 8.32 3.96 9 6 C8.01 5.67 7.02 5.34 6 5 C5.67 4.34 5.34 3.68 5 3 C3.35636866 2.27840576 1.68949614 1.60648579 0 1 C0 0.67 0 0.34 0 0 Z " fill="#202B66" transform="translate(67,41)"/>
<path d="M0 0 C1.45922693 0.11409593 2.91740598 0.24165544 4.375 0.375 C5.59316406 0.47941406 5.59316406 0.47941406 6.8359375 0.5859375 C9 1 9 1 11 3 C10.67 3.99 10.34 4.98 10 6 C9.67 5.34 9.34 4.68 9 4 C7.865625 3.855625 6.73125 3.71125 5.5625 3.5625 C4.386875 3.376875 3.21125 3.19125 2 3 C1.34 2.01 0.68 1.02 0 0 Z " fill="#254088" transform="translate(76,169)"/>
<path d="M0 0 C1.98 0 3.96 0 6 0 C6 1.98 6 3.96 6 6 C4.125 5.8125 4.125 5.8125 2 5 C0.75 2.4375 0.75 2.4375 0 0 Z M2 1 C2 1.66 2 2.32 2 3 C2.66 2.67 3.32 2.34 4 2 C3.34 1.67 2.68 1.34 2 1 Z " fill="#54577F" transform="translate(99,165)"/>
<path d="M0 0 C0.33 0 0.66 0 1 0 C1 2.64 1 5.28 1 8 C-0.98 8.99 -0.98 8.99 -3 10 C-2.67 8.02 -2.34 6.04 -2 4 C-1.34 4 -0.68 4 0 4 C0 2.68 0 1.36 0 0 Z " fill="#253D79" transform="translate(98,132)"/>
<path d="M0 0 C0.66 0.33 1.32 0.66 2 1 C1.43628586 4.26954202 0.50037734 5.82575883 -2 8 C-2 7.01 -2 6.02 -2 5 C-2.66 4.67 -3.32 4.34 -4 4 C-2.68 3.34 -1.36 2.68 0 2 C0 1.34 0 0.68 0 0 Z " fill="#7C768A" transform="translate(144,126)"/>
<path d="M0 0 C0.33 0.99 0.66 1.98 1 3 C-0.4375 5.6875 -0.4375 5.6875 -2 8 C-3.32 7.67 -4.64 7.34 -6 7 C-5.01 6.34 -4.02 5.68 -3 5 C-1.94895617 3.36504293 -0.94011682 1.70116376 0 0 Z " fill="#233B91" transform="translate(85,159)"/>
<path d="M0 0 C0.66 0 1.32 0 2 0 C2 0.99 2 1.98 2 3 C2.66 3 3.32 3 4 3 C4.33 5.31 4.66 7.62 5 10 C4.34 10 3.68 10 3 10 C0 3.375 0 3.375 0 0 Z " fill="#152663" transform="translate(132,119)"/>
<path d="M0 0 C0.33 0.99 0.66 1.98 1 3 C-0.40445835 5.2636564 -2.1967913 7.0208685 -4 9 C-4.66 8.34 -5.32 7.68 -6 7 C-2.25 1.125 -2.25 1.125 0 0 Z " fill="#172D64" transform="translate(96,141)"/>
<path d="M0 0 C3.7952131 1.49097658 5.61042731 3.75700849 8 7 C7.4225 6.690625 6.845 6.38125 6.25 6.0625 C4.15705816 5.07416636 2.25464725 4.4831387 0 4 C0 2.68 0 1.36 0 0 Z " fill="#2A3769" transform="translate(118,99)"/>
<path d="M0 0 C0.66 0 1.32 0 2 0 C1.9071875 1.1446875 1.9071875 1.1446875 1.8125 2.3125 C1.74101915 5.04525312 1.74101915 5.04525312 3.5 6.8125 C3.995 7.204375 4.49 7.59625 5 8 C3.68 7.67 2.36 7.34 1 7 C0.67 7.66 0.34 8.32 0 9 C-1.10844919 5.67465243 -0.84454356 3.37817425 0 0 Z " fill="#4B5680" transform="translate(93,64)"/>
<path d="M0 0 C0.99 0 1.98 0 3 0 C3 0.66 3 1.32 3 2 C3.66 2.33 4.32 2.66 5 3 C4.67 3.99 4.34 4.98 4 6 C3.01 6 2.02 6 1 6 C0.67 4.02 0.34 2.04 0 0 Z " fill="#23336C" transform="translate(63,64)"/>
<path d="M0 0 C0.99 0.495 0.99 0.495 2 1 C2.4140625 3.06640625 2.4140625 3.06640625 2.625 5.5625 C2.69976562 6.38878906 2.77453125 7.21507812 2.8515625 8.06640625 C2.92503906 9.02353516 2.92503906 9.02353516 3 10 C2.01 9.67 1.02 9.34 0 9 C0 6.03 0 3.06 0 0 Z " fill="#5D8ABD" transform="translate(135,45)"/>
<path d="M0 0 C1.65 0 3.3 0 5 0 C5 0.99 5 1.98 5 3 C3.02 3.66 1.04 4.32 -1 5 C-0.67 3.35 -0.34 1.7 0 0 Z " fill="#212F6E" transform="translate(92,165)"/>
<path d="M0 0 C0.99 0.495 0.99 0.495 2 1 C3.67654729 0.72057545 5.34608154 0.39171753 7 0 C2.25 4.875 2.25 4.875 0 6 C0 4.02 0 2.04 0 0 Z " fill="#28498C" transform="translate(94,102)"/>
<path d="M0 0 C1.98 0.495 1.98 0.495 4 1 C4 2.32 4 3.64 4 5 C2.35 5 0.7 5 -1 5 C-0.67 3.35 -0.34 1.7 0 0 Z " fill="#1D265C" transform="translate(73,59)"/>
<path d="M0 0 C4.455 0.99 4.455 0.99 9 2 C4.82091936 4.08954032 4.19589427 4.16552619 0 3 C0 2.01 0 1.02 0 0 Z " fill="#666692" transform="translate(85,28)"/>
<path d="M0 0 C3.75376152 1.25125384 4.24073289 2.5652404 6 6 C6 6.66 6 7.32 6 8 C5.34 8 4.68 8 4 8 C4 7.01 4 6.02 4 5 C3.01 5 2.02 5 1 5 C0.67 3.35 0.34 1.7 0 0 Z " fill="#2F3F6C" transform="translate(130,114)"/>
<path d="M0 0 C0.66 0.66 1.32 1.32 2 2 C1.34 3.32 0.68 4.64 0 6 C-1.32 5.67 -2.64 5.34 -4 5 C-3.34 3.68 -2.68 2.36 -2 1 C-2 1.66 -2 2.32 -2 3 C-1.34 3 -0.68 3 0 3 C0 2.01 0 1.02 0 0 Z " fill="#6B8AB1" transform="translate(127,70)"/>
<path d="M0 0 C0.66 0.66 1.32 1.32 2 2 C1.34 2.66 0.68 3.32 0 4 C0.33 4.66 0.66 5.32 1 6 C0.01 6 -0.98 6 -2 6 C-2.66 4.35 -3.32 2.7 -4 1 C-2.125 0.375 -2.125 0.375 0 0 Z " fill="#6190BE" transform="translate(77,10)"/>
<path d="M0 0 C1.9375 0.6875 1.9375 0.6875 2.9375 2.6875 C0.2975 3.0175 -2.3425 3.3475 -5.0625 3.6875 C-4.7325 2.6975 -4.4025 1.7075 -4.0625 0.6875 C-2.0625 -0.3125 -2.0625 -0.3125 0 0 Z " fill="#438BCC" transform="translate(93.0625,4.3125)"/>
<path d="M0 0 C0 0.99 0 1.98 0 3 C-3.33333333 6 -3.33333333 6 -6 6 C-4.95125002 3.37812506 -4.35068687 2.20628639 -1.875 0.75 C-1.25625 0.5025 -0.6375 0.255 0 0 Z " fill="#172667" transform="translate(137,130)"/>
<path d="M0 0 C1.4800841 0.11362262 2.95910074 0.24122908 4.4375 0.375 C5.26121094 0.44460937 6.08492188 0.51421875 6.93359375 0.5859375 C7.95646484 0.79089844 7.95646484 0.79089844 9 1 C9.33 1.66 9.66 2.32 10 3 C7.69 3 5.38 3 3 3 C3 2.34 3 1.68 3 1 C2.01 0.67 1.02 0.34 0 0 Z " fill="#7286CC" transform="translate(63,63)"/>
<path d="M0 0 C1.67542976 0.28604898 3.34385343 0.61781233 5 1 C3.02 1.99 3.02 1.99 1 3 C0.34 2.34 -0.32 1.68 -1 1 C-0.67 0.67 -0.34 0.34 0 0 Z " fill="#94939C" transform="translate(89,21)"/>
<path d="M0 0 C4 1 4 1 4 1 Z " fill="#767280" transform="translate(99,22)"/>
</svg>
